<?xml version="1.0" encoding="utf-8"?>
<!DOCTYPE svg PUBLIC "-//W3C//DTD SVG 1.1//EN" "http://www.w3.org/Graphics/SVG/1.1/DTD/svg11.dtd">
<svg version="1.1" xmlns="http://www.w3.org/2000/svg" xmlns:xlink="http://www.w3.org/1999/xlink" x="0px" y="0px" viewBox="0 0 1000 1000" enable-background="new 0 0 1000 1000" xml:space="preserve">
  <g><path
    d="M852.1,298.1c0-43-35-78-77.9-78c-20.4,0-39.3,8.2-53.7,22.1c-53.1-35.2-125.1-57.6-204.8-60.4l43.5-137.6L677,72c0,0.6-0.2,1.1-0.2,1.7c0,35.2,28.6,63.8,63.8,63.8c35.1,0,63.7-28.6,63.7-63.8c0-35.2-28.6-63.7-63.7-63.7c-27,0-50,16.9-59.3,40.6l-127-29.9c-5.5-1.3-11.2,1.9-12.9,7.3l-48.5,153.5c-83.3,1-158.8,23.6-214.3,59.7c-14.3-13.3-33-21-52.7-21c-43,0-77.9,35-77.9,78c0,27.8,15,53.3,38.6,67.1c-1.5,8.2-2.5,16.5-2.5,25.1c0,77.9,64.6,145.9,160.1,181.9c-0.2,1.3-0.4,2.6-0.6,4c-46.6,21-77.7,73.4-77.7,133.3c0,68.5,40.1,126.1,95.3,139.8c4.8,15.3,10.3,29.8,16.3,43.3c-3.5-0.4-7-0.9-10.6-0.9c-47.6,0-86.3,32.3-86.3,72c0,5.9,1.1,12,3.2,18.6c1.5,4.5,5.6,7.5,10.4,7.5h124.4h21h19l0.1,0.1h79.5l0.1-0.1h19.8h24h121.4c4.8,0,9-3.1,10.4-7.6c2.1-6.6,3.2-12.7,3.2-18.6c0-39.7-38.7-72-86.3-72c-3.9,0-7.6,0.5-11.4,0.9c6.1-13.5,11.5-28,16.4-43.4c56-13.5,96.3-71.3,96.3-139.7c0-60.5-31.5-113.2-78.8-133.8c-0.2-1.2-0.3-2.3-0.5-3.5C748.3,536.3,813,468.3,813,390.3c0-8-0.8-15.9-2.2-23.6C836.1,353.3,852.1,327.3,852.1,298.1z M740.5,31.8c23.1,0,41.9,18.8,41.9,41.9c0,23.1-18.8,41.9-41.9,41.9c-23.1,0-42-18.8-42-41.9C698.6,50.6,717.4,31.8,740.5,31.8z M169.8,298.1c0-30.9,25.2-56.1,56.1-56.1c12.6,0,24.7,4.5,34.6,12.2c-32.6,25.2-56.3,55.5-68,88.9C178.5,332.6,169.8,316.1,169.8,298.1z M631.9,579.3c4.9,30.8,7.4,62.8,7.5,95.7c0,136-44.6,258.4-106.4,293.1h-68.9C402.3,933.4,357.7,811,357.7,675c0-32.8,2.8-64.8,7.7-95.6c40.5,12.6,85.5,19.9,133.2,19.9C546.3,599.3,591.4,592,631.9,579.3z M287.7,709.5c0-45.7,20.4-86.1,52.2-106.8c-2.7,23.6-4.1,47.8-4.1,72.3c0,53.1,6.5,103.7,18,148.6C315,807,287.7,762.2,287.7,709.5z M302.8,968.1c-0.2-1.5-0.3-2.9-0.3-4.4c0-27.7,28.9-50.2,64.5-50.2c8,0,15.6,1.3,22.9,3.5c11.4,20.4,24.2,37.7,38.4,51h-9.5H302.8z M631,913.6c35.6,0,64.5,22.5,64.5,50.2c0,1.4-0.1,2.8-0.3,4.4H582.3h-13.4c14.1-13.3,26.9-30.5,38.3-50.9C614.7,914.8,622.7,913.6,631,913.6z M710.4,709.5c0,53.1-27.6,98.6-67.3,114.8c11.6-45,18.2-95.9,18.2-149.3c0-24.8-1.5-49.1-4.2-72.9C689.1,622.6,710.4,664,710.4,709.5z M498.5,577.5c-161.4,0-292.6-84-292.6-187.2c0-103.2,131.3-187.2,292.6-187.2c161.4,0,292.6,84,292.6,187.2C791.2,493.5,659.9,577.5,498.5,577.5z M805.2,344.7c-11.3-33.6-34.7-64.1-67.1-89.4c10-8.4,22.6-13.3,36-13.3c31,0,56.1,25.2,56.1,56.1C830.2,317.3,820.7,334.4,805.2,344.7z"/><path d="M439.5,351.7c0-25.6-20.8-46.4-46.4-46.4c-25.6,0-46.4,20.8-46.4,46.4c0,25.6,20.8,46.4,46.4,46.4C418.7,398,439.5,377.2,439.5,351.7z"/><path d="M607,305.3c-25.6,0-46.4,20.8-46.4,46.4c0,25.6,20.8,46.4,46.4,46.4c25.6,0,46.4-20.8,46.4-46.4C653.4,326.1,632.6,305.3,607,305.3z"/><path
    d="M597.1,473.8c-19.1,19.1-50.7,28.3-96.8,28.3c-0.1,0-0.3,0.1-0.4,0.1c-0.1,0-0.3-0.1-0.4-0.1c-46,0-77.7-9.3-96.8-28.3c-4.3-4.3-11.2-4.3-15.4,0c-4.3,4.3-4.3,11.2,0,15.4c23.4,23.4,60.1,34.7,112.2,34.7c0.1,0,0.3-0.1,0.4-0.1c0.1,0,0.3,0.1,0.4,0.1c52.1,0,88.8-11.3,112.2-34.7c4.3-4.3,4.3-11.2,0-15.4C608.3,469.5,601.4,469.5,597.1,473.8z"/></g>
</svg>
